SplineFontDB: 3.0
FontName: iconFont
FullName: iconFont
FamilyName: iconFont
Weight: Regular
Copyright: Copyright (c) 2017, Developer
UComments: "2017-7-7: Created with FontForge (http://fontforge.org)"
Version: 001.000
ItalicAngle: 0
UnderlinePosition: -100
UnderlineWidth: 50
Ascent: 800
Descent: 200
InvalidEm: 0
LayerCount: 2
Layer: 0 0 "Back" 1
Layer: 1 0 "Fore" 0
XUID: [1021 402 389677309 3246]
StyleMap: 0x0000
FSType: 0
OS2Version: 0
OS2_WeightWidthSlopeOnly: 0
OS2_UseTypoMetrics: 1
CreationTime: 1499437664
ModificationTime: 1507581894
PfmFamily: 48
TTFWeight: 400
TTFWidth: 5
LineGap: 90
VLineGap: 90
Panose: 2 0 5 9 0 0 0 0 0 0
OS2TypoAscent: 0
OS2TypoAOffset: 1
OS2TypoDescent: 0
OS2TypoDOffset: 1
OS2TypoLinegap: 90
OS2WinAscent: 0
OS2WinAOffset: 1
OS2WinDescent: 0
OS2WinDOffset: 1
HheadAscent: 0
HheadAOffset: 1
HheadDescent: 0
HheadDOffset: 1
OS2SubXSize: 650
OS2SubYSize: 699
OS2SubXOff: 0
OS2SubYOff: 140
OS2SupXSize: 650
OS2SupYSize: 699
OS2SupXOff: 0
OS2SupYOff: 479
OS2StrikeYSize: 49
OS2StrikeYPos: 258
OS2Vendor: 'PfEd'
MarkAttachClasses: 1
DEI: 91125
Encoding: ISO8859-1
UnicodeInterp: none
NameList: AGL For New Fonts
DisplaySize: -48
AntiAlias: 1
FitToEm: 0
WinInfo: 20 20 8
BeginPrivate: 0
EndPrivate
BeginChars: 256 20

StartChar: lock
Encoding: 108 108 0
Width: 658
VWidth: 0
Flags: W
HStem: 207.895 144.737<274.531 383.468> 721.053 78.9473<248.218 409.782>
VStem: 0.0527344 250<74.7347 183.417> 79 78.9473<550 630.097> 407.947 250<74.7347 183.417> 500.053 78.9473<435.898 471.053 550 630.097>
LayerCount: 2
Fore
SplineSet
592.158203125 352.631835938 m 2xe8
 157.947265625 352.631835938 l 1
 157.947265625 550 l 2
 157.947265625 644.318359375 234.681640625 721.052734375 329 721.052734375 c 0
 423.318359375 721.052734375 500.052734375 644.318359375 500.052734375 550 c 2
 500.052734375 471.052734375 l 2
 500.052734375 449.252929688 517.7265625 431.579101562 539.526367188 431.579101562 c 0
 561.326171875 431.579101562 579 449.252929688 579 471.052734375 c 2
 579 550 l 2
 579 687.849609375 466.849609375 800 329 800 c 0
 191.150390625 800 79 687.849609375 79 550 c 2
 79 352.631835938 l 1xd4
 65.841796875 352.631835938 l 2
 29.5078125 352.631835938 0.052734375 323.176757812 0.052734375 286.841796875 c 2
 0.052734375 -134.2109375 l 2
 0.052734375 -170.544921875 29.5078125 -200 65.841796875 -200 c 2
 592.158203125 -200 l 2
 628.4921875 -200 657.947265625 -170.544921875 657.947265625 -134.2109375 c 2
 657.947265625 286.841796875 l 2
 657.947265625 323.176757812 628.4921875 352.631835938 592.158203125 352.631835938 c 2xe8
250.052734375 128.947265625 m 0xe8
 250.052734375 172.549804688 285.397460938 207.89453125 329 207.89453125 c 0
 372.599609375 207.89453125 407.947265625 172.549804688 407.947265625 128.947265625 c 0
 407.947265625 99.728515625 392.065429688 74.2392578125 368.473632812 60.5869140625 c 1
 368.473632812 -55.2626953125 l 1
 289.526367188 -55.2626953125 l 1
 289.526367188 60.5869140625 l 1
 265.934570312 74.2392578125 250.052734375 99.728515625 250.052734375 128.947265625 c 0xe8
EndSplineSet
EndChar

StartChar: arrow-left
Encoding: 76 76 1
Width: 1540
VWidth: 0
Flags: W
HStem: 81.1182 439.267<723.998 1523.69>
LayerCount: 2
Fore
SplineSet
1539.38671875 459.651367188 m 2
 1539.38671875 142.75390625 l 2
 1539.38671875 109.380859375 1512.32714844 82.3212890625 1478.95410156 82.3212890625 c 2
 769.693359375 81.1181640625 l 2
 736.3203125 81.1181640625 709.260742188 53.7578125 709.260742188 20.685546875 c 2
 709.260742188 -167.227539062 l 2
 709.260742188 -200.30078125 688.514648438 -209.921875 663.258789062 -188.274414062 c 2
 18.94140625 260.9140625 l 2
 -6.3134765625 282.561523438 -6.3134765625 317.739257812 18.94140625 339.38671875 c 2
 663.258789062 788.575195312 l 2
 688.514648438 809.921875 709.260742188 800.6015625 709.260742188 767.227539062 c 2
 709.260742188 579.314453125 l 2
 709.260742188 550.451171875 729.705078125 526.3984375 756.463867188 520.384765625 c 2
 1480.15625 520.384765625 l 1
 1512.62792969 520.083984375 1539.38671875 492.422851562 1539.38671875 459.651367188 c 2
EndSplineSet
EndChar

StartChar: edit
Encoding: 69 69 2
Width: 1000
VWidth: 0
Flags: W
LayerCount: 2
Fore
SplineSet
621.826171875 631.489257812 m 1
 107.022460938 116.571289062 l 1
 310.329101562 -86.849609375 l 1
 825.248046875 428.069335938 l 1
 621.826171875 631.489257812 l 1
979.606445312 680.549804688 m 2
 888.887695312 771.268554688 l 2
 853.828125 806.328125 796.8984375 806.328125 761.719726562 771.268554688 c 2
 674.8203125 684.369140625 l 1
 878.243164062 480.946289062 l 1
 979.606445312 582.309570312 l 2
 1006.79882812 609.50390625 1006.79882812 653.357421875 979.606445312 680.549804688 c 2
0.5673828125 -169.353515625 m 2
 -3.134765625 -186.014648438 11.908203125 -200.943359375 28.5703125 -196.891601562 c 2
 255.250976562 -141.930664062 l 1
 51.943359375 61.490234375 l 1
 0.5673828125 -169.353515625 l 2
EndSplineSet
EndChar

StartChar: delete
Encoding: 68 68 3
Width: 791
VWidth: 0
Flags: W
HStem: -200 61.9912<121.38 668.903> 502.57 61.9912<121.013 669.12> 620.225 61.9912<62.8548 202.118 264.238 526.152 588.661 727.537> 738.009 61.9912<264.238 526.152>
VStem: 0 62.5078<564.562 619.361> 59.1504 61.8623<-137.787 502.44> 202.118 62.1201<682.216 738.009> 220.328 62.5078<-82.7324 429.859> 364.458 62.5078<-82.7324 429.859> 508.718 62.5078<-82.7324 429.859> 526.152 62.5088<682.216 738.009> 669.12 62.6377<-137.77 502.57> 727.883 62.5088<564.562 619.361>
LayerCount: 2
Fore
SplineSet
722.201171875 682.215820312 m 2xfaa0
 760.557617188 682.215820312 790.391601562 652.3828125 790.391601562 614.025390625 c 2
 790.391601562 564.561523438 l 1
 790.391601562 502.5703125 l 1xfaa8
 731.7578125 502.5703125 l 1
 731.7578125 -132.455078125 l 2
 731.7578125 -170.68359375 701.924804688 -200 663.567382812 -200 c 2
 126.6953125 -200 l 2
 88.466796875 -200 59.150390625 -170.8125 59.150390625 -132.455078125 c 2
 59.150390625 502.440429688 l 1xf490
 0 502.440429688 l 1
 0 564.432617188 l 1
 0 614.025390625 l 2
 0 652.3828125 29.8330078125 682.215820312 68.1904296875 682.215820312 c 2
 202.118164062 682.215820312 l 1
 202.118164062 769.00390625 l 2
 202.118164062 786.439453125 215.678710938 800 233.114257812 800 c 2
 235.438476562 800 l 1
 237.633789062 800 l 1
 551.465820312 800 l 2
 552.111328125 800 553.2734375 799.483398438 553.790039062 798.837890625 c 1
 554.306640625 799.483398438 555.469726562 800 557.1484375 800 c 0
 574.583007812 800 588.661132812 786.439453125 588.661132812 769.00390625 c 2
 588.661132812 682.215820312 l 1
 722.201171875 682.215820312 l 2xfaa0
264.23828125 738.008789062 m 1
 264.23828125 682.215820312 l 1
 526.15234375 682.215820312 l 1
 526.15234375 738.008789062 l 1
 264.23828125 738.008789062 l 1
669.25 -132.326171875 m 2
 669.120117188 -132.326171875 l 1
 669.120117188 502.5703125 l 1
 121.012695312 502.5703125 l 1
 121.012695312 -132.326171875 l 2xf490
 121.012695312 -136.329101562 122.69140625 -138.008789062 126.6953125 -138.008789062 c 2
 663.567382812 -138.008789062 l 2
 667.5703125 -138.008789062 669.25 -136.329101562 669.25 -132.326171875 c 2
727.8828125 564.561523438 m 1xf888
 727.8828125 614.025390625 l 2
 727.8828125 618.029296875 726.204101562 620.224609375 722.201171875 620.224609375 c 2
 68.1904296875 620.224609375 l 2
 64.1865234375 620.224609375 62.5078125 618.029296875 62.5078125 614.025390625 c 2
 62.5078125 564.561523438 l 1
 727.8828125 564.561523438 l 1xf888
508.717773438 -82.732421875 m 1xf0c0
 508.717773438 429.859375 l 1
 571.225585938 429.859375 l 1
 571.225585938 -82.732421875 l 1
 508.717773438 -82.732421875 l 1xf0c0
364.458007812 -82.732421875 m 1
 364.458007812 429.859375 l 1
 426.965820312 429.859375 l 1
 426.965820312 -82.732421875 l 1
 364.458007812 -82.732421875 l 1
220.328125 -82.732421875 m 1xf180
 220.328125 429.859375 l 1
 282.8359375 429.859375 l 1
 282.8359375 -82.732421875 l 1
 220.328125 -82.732421875 l 1xf180
EndSplineSet
EndChar

StartChar: home
Encoding: 72 72 4
Width: 1129
VWidth: 0
Flags: W
HStem: 780 20G<550.928 595.721>
VStem: 153.439 308.201<-174.868 33.6865> 654.321 308.201<-167.372 33.6865> 884.7 110.891<550.882 685.803>
LayerCount: 2
Fore
SplineSet
153.439453125 -174.868164062 m 1xe0
 153.439453125 -174.868164062 153.439453125 262.301757812 153.439453125 262.522460938 c 2
 570.10546875 611.728515625 l 1
 962.522460938 262.522460938 l 1
 962.522460938 -167.372070312 l 1
 962.522460938 -167.372070312 964.065429688 -198.677734375 932.759765625 -198.677734375 c 0
 895.061523438 -198.677734375 654.321289062 -198.677734375 654.321289062 -198.677734375 c 1
 654.76171875 33.6865234375 l 1
 654.76171875 33.6865234375 657.407226562 72.0458984375 613.315429688 72.0458984375 c 2
 495.370117188 72.0458984375 l 2
 458.11328125 72.0458984375 462.081054688 33.6865234375 462.081054688 33.6865234375 c 1
 461.640625 -199.559570312 l 1
 461.640625 -199.559570312 207.671875 -200 177.028320312 -200 c 0
 152.336914062 -200 153.439453125 -174.868164062 153.439453125 -174.868164062 c 1xe0
0 294.708984375 m 1
 573.6328125 800 l 1
 1128.74804688 297.354492188 l 1
 1128.74804688 297.354492188 1095.23828125 232.98046875 1005.95214844 297.354492188 c 1
 573.6328125 684.920898438 l 1
 112.43359375 294.708984375 l 2
 35.2734375 229.453125 0 294.708984375 0 294.708984375 c 1
995.590820312 685.802734375 m 1xd0
 995.590820312 456.966796875 l 1
 884.700195312 550.881835938 l 1
 884.258789062 685.802734375 l 1
 995.590820312 685.802734375 l 1xd0
EndSplineSet
EndChar

StartChar: arrow-v2
Encoding: 82 82 5
Width: 906
VWidth: 0
Flags: W
LayerCount: 2
Fore
SplineSet
891.252929688 319.973632812 m 2
 901.1328125 314.390625 906.075195312 307.736328125 906.075195312 300.0078125 c 0
 906.075195312 292.2890625 901.135742188 285.620117188 891.252929688 280.03125 c 2
 35.9853515625 -195.267578125 l 2
 26.1123046875 -200.854492188 17.6279296875 -201.486328125 10.544921875 -197.196289062 c 0
 3.4638671875 -192.903320312 -0.0751953125 -185.16796875 -0.0751953125 -173.998046875 c 2
 -0.0751953125 774.017578125 l 2
 -0.0751953125 785.1796875 3.4619140625 792.908203125 10.544921875 797.198242188 c 0
 17.6279296875 801.491210938 26.1123046875 800.850585938 35.9853515625 795.26953125 c 2
 891.252929688 319.973632812 l 2
EndSplineSet
EndChar

StartChar: next
Encoding: 79 79 6
Width: 1095
VWidth: 0
Flags: W
HStem: -200 141.254<9.6016 1084.32> 780 20G<40.6196 1057.33>
LayerCount: 2
Fore
SplineSet
15.61328125 728.275390625 m 2
 -24.640625 794.876953125 25.1279296875 800 56.111328125 800 c 2
 1037.5703125 800 l 2
 1077.09179688 800 1118.07714844 787.314453125 1076.60449219 727.787109375 c 2
 1076.60449219 727.787109375 640.400390625 33.9599609375 592.095703125 -3.3662109375 c 0
 546.962890625 -38.2529296875 546.962890625 -38.2529296875 505.000976562 -3.3662109375 c 0
 462.551757812 31.763671875 15.61328125 728.275390625 15.61328125 728.275390625 c 2
1033.17871094 -58.74609375 m 2
 1066.84570312 -58.74609375 1093.92578125 -79.2392578125 1093.92578125 -104.611328125 c 2
 1093.92578125 -154.134765625 l 2
 1093.92578125 -179.506835938 1066.6015625 -200 1033.17871094 -200 c 2
 60.74609375 -200 l 2
 27.080078125 -200 0 -179.506835938 0 -154.134765625 c 2
 0 -104.611328125 l 2
 0 -79.2392578125 27.32421875 -58.74609375 60.74609375 -58.74609375 c 2
 1033.17871094 -58.74609375 l 2
EndSplineSet
EndChar

StartChar: table
Encoding: 84 84 7
Width: 1183
VWidth: 0
Flags: W
HStem: -200.23 90.9512<97.3899 356.915 460.963 720.718 824.536 1084.28> 72.8535 90.7197<97.3899 356.915 460.963 720.708 824.536 1084.28> 345.706 90.4893<97.3899 356.915 460.963 720.708 824.536 1084.28> 618.329 181.671<97.3794 357.135 460.953 720.708 824.526 1084.28>
VStem: 0 90.7207<-102.621 66.1834 170.233 339.037 442.855 611.659> 363.573 90.7207<-102.61 66.1834 170.243 339.037 442.865 611.659> 727.378 90.4893<-102.61 66.1834 170.243 339.037 442.865 611.659> 1090.95 91.1816<-102.61 66.1939 170.243 339.047 442.865 611.669>
LayerCount: 2
Fore
SplineSet
1148.43066406 766.528320312 m 0
 1170.82226562 744.3671875 1181.90234375 717.58984375 1182.1328125 686.426757812 c 2
 1182.1328125 -86.4267578125 l 2
 1182.1328125 -117.821289062 1170.82226562 -144.598632812 1148.66113281 -166.758789062 c 0
 1126.26953125 -189.150390625 1099.4921875 -200.23046875 1068.32910156 -200.23046875 c 2
 113.8046875 -200.23046875 l 2
 82.41015625 -200.23046875 55.6328125 -188.919921875 33.4716796875 -166.758789062 c 0
 11.080078125 -144.3671875 0 -117.58984375 0 -86.4267578125 c 2
 0 686.426757812 l 2
 0 717.58984375 11.080078125 744.3671875 33.4716796875 766.528320312 c 0
 55.6328125 788.919921875 82.41015625 800 113.573242188 800 c 2
 1068.32910156 800 l 2
 1099.4921875 800 1126.26953125 788.919921875 1148.43066406 766.528320312 c 0
363.573242188 -86.4267578125 m 1
 363.8046875 50 l 2
 363.8046875 56.6943359375 361.49609375 62.234375 357.340820312 66.3896484375 c 0
 352.955078125 70.775390625 347.645507812 72.853515625 340.951171875 72.853515625 c 2
 113.573242188 72.853515625 l 2
 106.87890625 72.853515625 101.338867188 70.775390625 97.18359375 66.3896484375 c 0
 92.7978515625 62.00390625 90.720703125 56.6943359375 90.720703125 50 c 2
 90.720703125 -86.4267578125 l 2
 90.720703125 -93.12109375 93.0283203125 -98.6611328125 97.18359375 -102.81640625 c 0
 101.569335938 -107.202148438 106.87890625 -109.279296875 113.573242188 -109.279296875 c 2
 340.720703125 -109.279296875 l 2
 347.415039062 -109.279296875 352.955078125 -106.971679688 357.110351562 -102.81640625 c 0
 361.49609375 -98.4306640625 363.573242188 -93.12109375 363.573242188 -86.4267578125 c 1
363.573242188 186.426757812 m 1
 363.8046875 322.853515625 l 2
 363.8046875 329.547851562 361.49609375 335.087890625 357.340820312 339.243164062 c 0
 352.955078125 343.62890625 347.645507812 345.706054688 340.951171875 345.706054688 c 2
 113.573242188 345.706054688 l 2
 106.87890625 345.706054688 101.338867188 343.3984375 97.18359375 339.243164062 c 0
 92.7978515625 334.856445312 90.720703125 329.547851562 90.720703125 322.853515625 c 2
 90.720703125 186.426757812 l 2
 90.720703125 179.732421875 93.0283203125 174.192382812 97.18359375 170.037109375 c 0
 101.569335938 165.651367188 106.87890625 163.573242188 113.573242188 163.573242188 c 2
 340.720703125 163.573242188 l 2
 347.415039062 163.573242188 352.955078125 165.881835938 357.110351562 170.037109375 c 0
 361.49609375 174.422851562 363.573242188 179.732421875 363.573242188 186.426757812 c 1
363.573242188 459.048828125 m 1
 363.8046875 595.475585938 l 2
 363.8046875 602.169921875 361.49609375 607.709960938 357.340820312 611.865234375 c 0
 352.955078125 616.250976562 347.645507812 618.329101562 340.951171875 618.329101562 c 2
 113.573242188 618.329101562 l 2
 106.87890625 618.329101562 101.338867188 616.020507812 97.18359375 611.865234375 c 0
 92.7978515625 607.479492188 90.720703125 602.169921875 90.720703125 595.475585938 c 2
 90.720703125 459.048828125 l 2
 90.720703125 452.354492188 93.0283203125 446.814453125 97.18359375 442.659179688 c 0
 101.569335938 438.2734375 106.87890625 436.1953125 113.573242188 436.1953125 c 2
 340.720703125 436.1953125 l 2
 347.415039062 436.1953125 352.955078125 438.50390625 357.110351562 442.659179688 c 0
 361.49609375 447.044921875 363.573242188 452.354492188 363.573242188 459.048828125 c 1
727.377929688 -86.4267578125 m 1
 727.377929688 50 l 2
 727.377929688 56.6943359375 725.069335938 62.234375 720.9140625 66.3896484375 c 0
 716.528320312 70.775390625 711.21875 72.853515625 704.524414062 72.853515625 c 2
 477.146484375 72.853515625 l 2
 470.452148438 72.853515625 464.912109375 70.775390625 460.756835938 66.3896484375 c 0
 456.37109375 62.00390625 454.293945312 56.6943359375 454.293945312 50 c 2
 454.293945312 -86.4267578125 l 2
 454.293945312 -93.12109375 456.6015625 -98.6611328125 460.756835938 -102.81640625 c 0
 465.143554688 -107.202148438 470.452148438 -109.279296875 477.146484375 -109.279296875 c 2
 704.524414062 -109.279296875 l 2
 711.21875 -109.279296875 716.758789062 -106.971679688 720.9140625 -102.81640625 c 0
 725.299804688 -98.4306640625 727.377929688 -93.12109375 727.377929688 -86.4267578125 c 1
727.377929688 186.426757812 m 1
 727.377929688 322.853515625 l 2
 727.377929688 329.547851562 725.069335938 335.087890625 720.9140625 339.243164062 c 0
 716.528320312 343.62890625 711.21875 345.706054688 704.524414062 345.706054688 c 2
 477.146484375 345.706054688 l 2
 470.452148438 345.706054688 464.912109375 343.3984375 460.756835938 339.243164062 c 0
 456.37109375 334.856445312 454.293945312 329.547851562 454.293945312 322.853515625 c 2
 454.293945312 186.426757812 l 2
 454.293945312 179.732421875 456.6015625 174.192382812 460.756835938 170.037109375 c 0
 465.143554688 165.651367188 470.452148438 163.573242188 477.146484375 163.573242188 c 2
 704.524414062 163.573242188 l 2
 711.21875 163.573242188 716.758789062 165.881835938 720.9140625 170.037109375 c 0
 725.299804688 174.422851562 727.377929688 179.732421875 727.377929688 186.426757812 c 1
727.377929688 459.048828125 m 1
 727.377929688 595.475585938 l 2
 727.377929688 602.169921875 725.069335938 607.709960938 720.9140625 611.865234375 c 0
 716.528320312 616.250976562 711.21875 618.329101562 704.524414062 618.329101562 c 2
 477.146484375 618.329101562 l 2
 470.452148438 618.329101562 464.912109375 616.020507812 460.756835938 611.865234375 c 0
 456.37109375 607.479492188 454.293945312 602.169921875 454.293945312 595.475585938 c 2
 454.293945312 459.048828125 l 2
 454.293945312 452.354492188 456.6015625 446.814453125 460.756835938 442.659179688 c 0
 465.143554688 438.2734375 470.452148438 436.1953125 477.146484375 436.1953125 c 2
 704.524414062 436.1953125 l 2
 711.21875 436.1953125 716.758789062 438.50390625 720.9140625 442.659179688 c 0
 725.299804688 447.044921875 727.377929688 452.354492188 727.377929688 459.048828125 c 1
1090.95117188 -86.4267578125 m 2
 1090.95117188 50 l 2
 1090.95117188 56.6943359375 1088.64257812 62.234375 1084.48730469 66.3896484375 c 0
 1080.1015625 70.775390625 1074.79199219 72.853515625 1068.09765625 72.853515625 c 2
 840.720703125 72.853515625 l 2
 834.025390625 72.853515625 828.485351562 70.775390625 824.330078125 66.3896484375 c 0
 819.944335938 62.00390625 817.8671875 56.6943359375 817.8671875 50 c 2
 817.8671875 -86.4267578125 l 2
 817.8671875 -93.12109375 820.17578125 -98.6611328125 824.330078125 -102.81640625 c 0
 828.716796875 -107.202148438 834.025390625 -109.279296875 840.720703125 -109.279296875 c 2
 1068.09765625 -109.279296875 l 2
 1074.79199219 -109.279296875 1080.1015625 -106.971679688 1084.48730469 -102.81640625 c 0
 1088.87304688 -98.4306640625 1090.95117188 -93.12109375 1090.95117188 -86.4267578125 c 2
1090.95117188 186.426757812 m 2
 1090.95117188 322.853515625 l 2
 1090.95117188 329.547851562 1088.64257812 335.087890625 1084.48730469 339.243164062 c 0
 1080.1015625 343.62890625 1074.79199219 345.706054688 1068.09765625 345.706054688 c 2
 840.720703125 345.706054688 l 2
 834.025390625 345.706054688 828.485351562 343.3984375 824.330078125 339.243164062 c 0
 819.944335938 334.856445312 817.8671875 329.547851562 817.8671875 322.853515625 c 2
 817.8671875 186.426757812 l 2
 817.8671875 179.732421875 820.17578125 174.192382812 824.330078125 170.037109375 c 0
 828.716796875 165.651367188 834.025390625 163.573242188 840.720703125 163.573242188 c 2
 1068.09765625 163.573242188 l 2
 1074.79199219 163.573242188 1080.1015625 165.881835938 1084.48730469 170.037109375 c 0
 1088.87304688 174.422851562 1090.95117188 179.732421875 1090.95117188 186.426757812 c 2
1090.95117188 459.048828125 m 2
 1090.95117188 595.475585938 l 2
 1090.95117188 602.169921875 1088.64257812 607.709960938 1084.48730469 611.865234375 c 0
 1080.1015625 616.250976562 1074.79199219 618.329101562 1068.09765625 618.329101562 c 2
 840.720703125 618.329101562 l 2
 834.025390625 618.329101562 828.485351562 616.020507812 824.330078125 611.865234375 c 0
 819.944335938 607.479492188 817.8671875 602.169921875 817.8671875 595.475585938 c 2
 817.8671875 459.048828125 l 2
 817.8671875 452.354492188 820.17578125 446.814453125 824.330078125 442.659179688 c 0
 828.716796875 438.2734375 834.025390625 436.1953125 840.720703125 436.1953125 c 2
 1068.09765625 436.1953125 l 2
 1074.79199219 436.1953125 1080.1015625 438.50390625 1084.48730469 442.659179688 c 0
 1088.87304688 447.044921875 1090.95117188 452.354492188 1090.95117188 459.048828125 c 2
EndSplineSet
EndChar

StartChar: list
Encoding: 85 85 8
Width: 1330
VWidth: 0
Flags: W
HStem: -197.793 176.601<30.5142 146.086> -182.34 132.45<323.714 1309.84> 212.804 176.601<30.5142 146.086> 234.879 132.45<323.714 1309.84> 623.399 176.601<30.5142 146.086> 649.89 132.45<323.714 1309.84>
VStem: 0 176.601<-167.278 -51.7065 243.318 358.89 653.914 769.486>
LayerCount: 2
Fore
SplineSet
1260.48535156 -182.33984375 m 2x42
 373.068359375 -182.33984375 l 2
 335.541015625 -182.33984375 306.84375 -153.642578125 306.84375 -116.115234375 c 0
 306.84375 -78.5869140625 335.541015625 -49.8896484375 373.068359375 -49.8896484375 c 2
 1260.48535156 -49.8896484375 l 2
 1298.01367188 -49.8896484375 1326.7109375 -78.5869140625 1326.7109375 -116.115234375 c 0
 1326.7109375 -153.642578125 1298.01367188 -182.33984375 1260.48535156 -182.33984375 c 2x42
1260.48535156 234.87890625 m 2x12
 373.068359375 234.87890625 l 2
 335.541015625 234.87890625 306.84375 263.576171875 306.84375 301.103515625 c 0
 306.84375 338.630859375 335.541015625 367.329101562 373.068359375 367.329101562 c 2
 1260.48535156 367.329101562 l 2
 1298.01367188 367.329101562 1326.7109375 338.630859375 1326.7109375 301.103515625 c 0
 1326.7109375 263.576171875 1298.01367188 234.87890625 1260.48535156 234.87890625 c 2x12
1260.48535156 649.889648438 m 2x06
 373.068359375 649.889648438 l 2
 335.541015625 649.889648438 306.84375 678.586914062 306.84375 716.115234375 c 0
 306.84375 753.642578125 335.541015625 782.33984375 373.068359375 782.33984375 c 2
 1260.48535156 782.33984375 l 2
 1298.01367188 782.33984375 1326.7109375 753.642578125 1326.7109375 716.115234375 c 0
 1326.7109375 678.586914062 1298.01367188 649.889648438 1260.48535156 649.889648438 c 2x06
0 711.700195312 m 0
 0 760.466796875 39.533203125 800 88.2998046875 800 c 0
 137.067382812 800 176.600585938 760.466796875 176.600585938 711.700195312 c 0
 176.600585938 662.932617188 137.067382812 623.399414062 88.2998046875 623.399414062 c 0x0a
 39.533203125 623.399414062 0 662.932617188 0 711.700195312 c 0
0 301.103515625 m 0
 0 349.87109375 39.533203125 389.404296875 88.2998046875 389.404296875 c 0
 137.067382812 389.404296875 176.600585938 349.87109375 176.600585938 301.103515625 c 0
 176.600585938 252.336914062 137.067382812 212.803710938 88.2998046875 212.803710938 c 0x22
 39.533203125 212.803710938 0 252.336914062 0 301.103515625 c 0
0 -109.4921875 m 0
 0 -60.7255859375 39.533203125 -21.1923828125 88.2998046875 -21.1923828125 c 0
 137.067382812 -21.1923828125 176.600585938 -60.7255859375 176.600585938 -109.4921875 c 0
 176.600585938 -158.258789062 137.067382812 -197.79296875 88.2998046875 -197.79296875 c 0x82
 39.533203125 -197.79296875 0 -158.258789062 0 -109.4921875 c 0
EndSplineSet
EndChar

StartChar: tile
Encoding: 86 86 9
Width: 1000
VWidth: 0
HStem: -191.944 282.289<3.76199 278.49 358.595 633.355 721.511 996.239> 162.922 282.251<3.76199 278.49 358.595 633.355 721.511 996.239> 509.655 282.289<3.76199 278.49 358.595 633.355 721.511 996.239>
VStem: 0 282.251<-188.176 86.5769 166.683 441.395 513.423 788.182> 354.827 282.29<-188.176 86.5769 166.683 441.412 513.423 788.182> 717.749 282.251<-188.176 86.5769 166.683 441.412 513.423 788.176>
LayerCount: 2
Fore
SplineSet
244.09375 791.944335938 m 2
 265.176757812 791.944335938 282.250976562 774.870117188 282.250976562 753.748046875 c 2
 282.250976562 547.8125 l 2
 282.250976562 526.768554688 265.176757812 509.655273438 244.09375 509.655273438 c 2
 38.1962890625 509.655273438 l 2
 17.07421875 509.655273438 0 526.768554688 0 547.8125 c 2
 0 753.748046875 l 2
 0 774.870117188 17.07421875 791.944335938 38.1962890625 791.944335938 c 2
 244.09375 791.944335938 l 2
598.920898438 791.944335938 m 2
 620.041992188 791.944335938 637.1171875 774.870117188 637.1171875 753.748046875 c 2
 637.1171875 547.8125 l 2
 637.1171875 526.768554688 620.041992188 509.655273438 598.920898438 509.655273438 c 2
 392.985351562 509.655273438 l 2
 371.940429688 509.655273438 354.827148438 526.768554688 354.827148438 547.8125 c 2
 354.827148438 753.748046875 l 2
 354.827148438 774.870117188 371.940429688 791.944335938 392.985351562 791.944335938 c 2
 598.920898438 791.944335938 l 2
961.842773438 791.944335938 m 2
 982.92578125 791.944335938 1000 774.831054688 1000 753.748046875 c 2
 1000 547.8125 l 2
 1000 526.768554688 982.92578125 509.655273438 961.842773438 509.655273438 c 2
 755.9453125 509.655273438 l 2
 734.823242188 509.655273438 717.749023438 526.768554688 717.749023438 547.8125 c 2
 717.749023438 753.748046875 l 2
 717.749023438 774.870117188 734.823242188 791.944335938 755.9453125 791.944335938 c 2
 961.842773438 791.944335938 l 2
244.09375 445.172851562 m 2
 265.176757812 445.172851562 282.250976562 428.09765625 282.250976562 407.014648438 c 2
 282.250976562 201.079101562 l 2
 282.250976562 179.99609375 265.176757812 162.921875 244.09375 162.921875 c 2
 38.1962890625 162.921875 l 2
 17.07421875 162.921875 0 179.99609375 0 201.079101562 c 2
 0 407.014648438 l 2
 0 428.09765625 17.07421875 445.133789062 38.1962890625 445.172851562 c 2
 244.09375 445.172851562 l 2
598.920898438 445.172851562 m 2
 620.041992188 445.172851562 637.1171875 428.09765625 637.1171875 407.014648438 c 2
 637.1171875 201.079101562 l 2
 637.1171875 179.99609375 620.041992188 162.921875 598.920898438 162.921875 c 2
 392.985351562 162.921875 l 2
 371.940429688 162.921875 354.827148438 179.99609375 354.827148438 201.079101562 c 2
 354.827148438 407.014648438 l 2
 354.827148438 428.09765625 371.940429688 445.172851562 392.985351562 445.172851562 c 2
 598.920898438 445.172851562 l 2
961.842773438 445.172851562 m 2
 982.92578125 445.172851562 1000 428.09765625 1000 407.014648438 c 2
 1000 201.079101562 l 2
 1000 179.99609375 982.92578125 162.921875 961.842773438 162.921875 c 2
 755.9453125 162.921875 l 2
 734.823242188 162.921875 717.749023438 179.99609375 717.749023438 201.079101562 c 2
 717.749023438 407.014648438 l 2
 717.749023438 428.09765625 734.823242188 445.172851562 755.9453125 445.172851562 c 2
 961.842773438 445.172851562 l 2
244.09375 90.3447265625 m 2
 265.176757812 90.3447265625 282.250976562 73.2314453125 282.250976562 52.1875 c 2
 282.250976562 -153.748046875 l 2
 282.250976562 -174.831054688 265.176757812 -191.944335938 244.09375 -191.944335938 c 2
 38.1962890625 -191.944335938 l 2
 17.07421875 -191.944335938 0 -174.831054688 0 -153.748046875 c 2
 0 52.1875 l 2
 0 73.2314453125 17.07421875 90.3447265625 38.1962890625 90.3447265625 c 2
 244.09375 90.3447265625 l 2
598.920898438 90.3447265625 m 2
 620.041992188 90.3447265625 637.1171875 73.2314453125 637.1171875 52.1875 c 2
 637.1171875 -153.748046875 l 2
 637.1171875 -174.831054688 620.041992188 -191.944335938 598.920898438 -191.944335938 c 2
 392.985351562 -191.944335938 l 2
 371.940429688 -191.944335938 354.827148438 -174.831054688 354.827148438 -153.748046875 c 2
 354.827148438 52.1875 l 2
 354.827148438 73.2314453125 371.940429688 90.3447265625 392.985351562 90.3447265625 c 2
 598.920898438 90.3447265625 l 2
961.842773438 90.3447265625 m 2
 982.92578125 90.3447265625 1000 73.2314453125 1000 52.1875 c 2
 1000 -153.748046875 l 2
 1000 -174.831054688 982.92578125 -191.944335938 961.842773438 -191.944335938 c 2
 755.9453125 -191.944335938 l 2
 734.823242188 -191.944335938 717.749023438 -174.831054688 717.749023438 -153.748046875 c 2
 717.749023438 52.1875 l 2
 717.749023438 73.2314453125 734.823242188 90.3447265625 755.9453125 90.3447265625 c 2
 961.842773438 90.3447265625 l 2
EndSplineSet
EndChar

StartChar: arrow-down
Encoding: 100 100 10
Width: 1755
VWidth: 0
Flags: W
LayerCount: 2
Fore
SplineSet
876.94140625 -200 m 0
 845.497070312 -200 814.052734375 -187.965820312 789.984375 -163.897460938 c 2
 36.1025390625 590.373046875 l 2
 -12.0341796875 638.12109375 -12.0341796875 716.149414062 36.1025390625 763.897460938 c 0
 83.8505859375 812.034179688 161.87890625 812.034179688 209.626953125 763.897460938 c 2
 876.94140625 96.583984375 l 1
 1544.25488281 763.897460938 l 2
 1592.39160156 812.034179688 1670.03125 812.034179688 1717.77929688 763.897460938 c 0
 1765.91601562 715.760742188 1765.91601562 638.12109375 1717.77929688 589.984375 c 2
 963.897460938 -163.897460938 l 2
 939.829101562 -187.965820312 908.384765625 -200 876.94140625 -200 c 0
EndSplineSet
EndChar

StartChar: add-site
Encoding: 83 83 11
Width: 1216
VWidth: 0
Flags: W
HStem: -234.521 148.479<985.059 1093.17 1241.65 1349.76> -200 74.2393<74.2393 889.013> 26.8008 135.857<270.799 369.142> 39.0498 111.358<461.004 1005.22> 249.518 135.857<270.799 369.142> 261.767 111.358<461.004 1005.22> 514.18 285.82<74.2393 1139.57>
VStem: 0 74.2393<-125.761 514.18> 252.042 135.857<45.5578 143.901 268.275 366.618> 1093.17 148.479<-342.632 -234.521 -86.043 22.0674> 1139.57 74.2393<118.114 514.18>
LayerCount: 2
Fore
SplineSet
252.041992188 317.446289062 m 0x0b80
 252.041992188 354.961914062 282.454101562 385.375 319.970703125 385.375 c 0
 357.486328125 385.375 387.899414062 354.961914062 387.899414062 317.446289062 c 0
 387.899414062 279.9296875 357.486328125 249.517578125 319.970703125 249.517578125 c 0
 282.454101562 249.517578125 252.041992188 279.9296875 252.041992188 317.446289062 c 0x0b80
961.395507812 261.766601562 m 2x0780
 504.825195312 261.766601562 l 2
 474.016601562 261.766601562 449.146484375 286.63671875 449.146484375 317.446289062 c 0
 449.146484375 348.255859375 474.016601562 373.125 504.825195312 373.125 c 2
 961.395507812 373.125 l 2
 992.205078125 373.125 1017.07519531 348.255859375 1017.07519531 317.446289062 c 0
 1017.07519531 286.63671875 992.205078125 261.766601562 961.395507812 261.766601562 c 2x0780
252.041992188 94.7294921875 m 0
 252.041992188 132.245117188 282.454101562 162.658203125 319.970703125 162.658203125 c 0
 357.486328125 162.658203125 387.899414062 132.245117188 387.899414062 94.7294921875 c 0
 387.899414062 57.212890625 357.486328125 26.80078125 319.970703125 26.80078125 c 0x2380
 282.454101562 26.80078125 252.041992188 57.212890625 252.041992188 94.7294921875 c 0
961.395507812 39.0498046875 m 2x1380
 504.825195312 39.0498046875 l 2
 474.016601562 39.0498046875 449.146484375 63.919921875 449.146484375 94.7294921875 c 0
 449.146484375 125.538085938 474.016601562 150.408203125 504.825195312 150.408203125 c 2
 961.395507812 150.408203125 l 2
 992.205078125 150.408203125 1017.07519531 125.538085938 1017.07519531 94.7294921875 c 0
 1017.07519531 63.919921875 992.205078125 39.0498046875 961.395507812 39.0498046875 c 2x1380
1297.32714844 -86.04296875 m 2x83c0
 1338.53027344 -86.04296875 1371.56640625 -119.450195312 1371.56640625 -160.282226562 c 0
 1371.56640625 -201.11328125 1338.15917969 -234.521484375 1297.32714844 -234.521484375 c 2
 1241.6484375 -234.521484375 l 1
 1241.6484375 -290.200195312 l 2
 1241.6484375 -331.032226562 1208.24023438 -364.439453125 1167.40917969 -364.439453125 c 0
 1126.57714844 -364.439453125 1093.16992188 -331.032226562 1093.16992188 -290.200195312 c 2
 1093.16992188 -234.521484375 l 1
 1037.49023438 -234.521484375 l 2
 996.659179688 -234.521484375 963.251953125 -201.11328125 963.251953125 -160.282226562 c 0
 963.251953125 -119.450195312 996.659179688 -86.04296875 1037.49023438 -86.04296875 c 2
 1093.16992188 -86.04296875 l 1
 1093.16992188 -30.3642578125 l 2
 1093.16992188 10.4677734375 1126.57714844 43.875 1167.40917969 43.875 c 0
 1208.24023438 43.875 1241.6484375 10.4677734375 1241.6484375 -30.3642578125 c 2
 1241.6484375 -86.04296875 l 1
 1297.32714844 -86.04296875 l 2x83c0
889.012695312 -160.282226562 m 0
 889.012695312 -174.016601562 890.868164062 -187.37890625 894.208984375 -200 c 2
 37.119140625 -200 l 2
 16.7041015625 -200 0 -183.295898438 0 -162.880859375 c 2
 0 762.880859375 l 2
 0 783.295898438 16.7041015625 800 37.119140625 800 c 2
 1176.68847656 800 l 2
 1197.10449219 800 1213.80859375 783.295898438 1213.80859375 762.880859375 c 2
 1213.80859375 110.690429688 l 1
 1198.9609375 115.515625 1183.74121094 118.114257812 1167.40917969 118.114257812 c 0
 1158.12890625 118.114257812 1148.47851562 117.372070312 1139.56933594 115.515625 c 2
 1139.56933594 514.1796875 l 1
 74.2392578125 514.1796875 l 1
 74.2392578125 -125.760742188 l 1
 893.095703125 -125.760742188 l 2x43a0
 890.497070312 -136.896484375 889.012695312 -148.404296875 889.012695312 -160.282226562 c 0
EndSplineSet
EndChar

StartChar: plus
Encoding: 80 80 12
Width: 1000
VWidth: 0
Flags: W
HStem: 264.413 71.1738<3.00723 464.127 535.333 996.882> 780 20G<490.157 509.843>
VStem: 464.158 71.1748<-197.168 264.413 335.587 797.168>
LayerCount: 2
Fore
SplineSet
35.5869140625 264.413085938 m 2
 15.9013671875 264.413085938 0.2548828125 280.568359375 0.2548828125 300.254882812 c 0
 0.2548828125 319.940429688 15.9013671875 335.586914062 35.5869140625 335.586914062 c 2
 464.126953125 335.586914062 l 1
 464.126953125 764.158203125 l 2
 464.158203125 783.844726562 480.314453125 800 500 800 c 0
 519.685546875 800 535.333007812 783.844726562 535.333007812 764.158203125 c 2
 535.333007812 335.586914062 l 1
 963.872070312 335.586914062 l 2
 983.557617188 335.586914062 999.713867188 319.940429688 999.713867188 300.254882812 c 0
 999.713867188 280.568359375 983.557617188 264.413085938 963.872070312 264.413085938 c 2
 535.333007812 264.413085938 l 1
 535.333007812 -164.158203125 l 2
 535.333007812 -183.844726562 519.685546875 -200 500 -200 c 0
 480.314453125 -200 464.158203125 -183.844726562 464.158203125 -164.158203125 c 2
 464.158203125 264.413085938 l 1
 35.5869140625 264.413085938 l 2
EndSplineSet
EndChar

StartChar: folder-add
Encoding: 70 70 13
Width: 1156
VWidth: 0
Flags: W
HStem: -199.758 384.317<311.386 538.238 615.198 842.488> -199.758 153.437<542.025 611.37> 261.52 384.56<311.386 538.48 615.44 662.754> 492.4 153.679<542.267 611.612> 780 20G<747.943 1098.14>
VStem: 0 538.48<-42.4932 184.56 261.52 488.614> 615.44 538.48<-42.075 184.56 261.52 488.614>
LayerCount: 2
Fore
SplineSet
1076.95996094 800 m 2x5e
 1119.3125 800 1153.67871094 765.633789062 1153.92089844 723.040039062 c 2
 1153.92089844 -122.797851562 l 2
 1153.92089844 -165.391601562 1119.3125 -199.7578125 1076.95996094 -199.7578125 c 2
 76.9599609375 -199.7578125 l 2
 34.3662109375 -199.7578125 0 -165.150390625 0 -122.797851562 c 2
 0 569.361328125 l 2
 0 611.713867188 34.3662109375 646.079101562 76.9599609375 646.079101562 c 2
 615.198242188 646.079101562 l 2
 682.236328125 652.61328125 692.159179688 723.040039062 692.159179688 723.040039062 c 1
 692.159179688 765.633789062 726.766601562 800 769.119140625 800 c 2
 1076.95996094 800 l 2x5e
807.599609375 184.559570312 m 2x8e
 828.896484375 184.559570312 846.321289062 201.984375 846.321289062 223.040039062 c 0
 846.321289062 244.094726562 828.896484375 261.51953125 807.840820312 261.51953125 c 2
 615.440429688 261.51953125 l 1xae
 615.440429688 453.920898438 l 2
 615.440429688 475.217773438 598.015625 492.400390625 576.959960938 492.400390625 c 0x1e
 555.663085938 492.400390625 538.48046875 475.217773438 538.48046875 453.920898438 c 2
 538.48046875 261.51953125 l 1
 346.079101562 261.51953125 l 2
 324.782226562 261.51953125 307.599609375 244.094726562 307.599609375 223.040039062 c 0
 307.599609375 201.984375 324.782226562 184.559570312 346.079101562 184.559570312 c 2
 538.23828125 184.559570312 l 1xae
 538.23828125 -7.8408203125 l 2
 538.23828125 -28.896484375 555.420898438 -46.3212890625 576.71875 -46.3212890625 c 0x4e
 597.7734375 -46.3212890625 615.198242188 -28.896484375 615.198242188 -7.8408203125 c 2
 615.198242188 184.559570312 l 1
 807.599609375 184.559570312 l 2x8e
EndSplineSet
EndChar

StartChar: edit-folder
Encoding: 102 102 14
Width: 1070
VWidth: 0
Flags: W
HStem: -200 93.75<486.458 582.083> 84.792 286.666<460.051 608.699> 780 20G<24.1665 509.167>
VStem: 391.042 286.666<153.801 302.449>
LayerCount: 2
Fore
SplineSet
391.041992188 228.125 m 0
 391.041992188 307.286132812 455.213867188 371.458007812 534.375 371.458007812 c 0
 613.536132812 371.458007812 677.708007812 307.286132812 677.708007812 228.125 c 0
 677.708007812 148.963867188 613.536132812 84.7919921875 534.375 84.7919921875 c 0
 455.213867188 84.7919921875 391.041992188 148.963867188 391.041992188 228.125 c 0
1000 600 m 2
 1036.875 600 1066.66699219 570.208007812 1066.66699219 533.333007812 c 2
 1066.66699219 -133.333007812 l 2
 1066.66699219 -170.208007812 1036.875 -200 1000 -200 c 2
 66.6669921875 -200 l 2
 29.7919921875 -200 0 -170.208007812 0 -133.333007812 c 2
 0 766.666992188 l 2
 0 785 15 800 33.3330078125 800 c 2
 500 800 l 2
 518.333007812 800 533.333007812 785 533.333007812 766.666992188 c 2
 533.333007812 733.333007812 l 1
 866.666992188 733.333007812 l 2
 903.541992188 733.333007812 933.333007812 703.541992188 933.333007812 666.666992188 c 2
 933.333007812 600 l 1
 1000 600 l 2
868.75 180.416992188 m 1
 868.75 275.833007812 l 1
 768.541992188 275.833007812 l 1
 762.5 305.625 750.625 333.958007812 733.75 359.375 c 1
 807.291992188 432.916992188 l 1
 740 500.208007812 l 1
 666.458007812 426.666992188 l 1
 640.833007812 443.75 612.291992188 455.833007812 582.291992188 462.083007812 c 1
 582.291992188 562.5 l 1
 486.666992188 562.5 l 1
 486.666992188 462.291992188 l 1
 456.875 456.25 428.541992188 444.375 403.125 427.5 c 1
 329.583007812 501.041992188 l 1
 262.291992188 433.75 l 1
 335.833007812 360.208007812 l 1
 318.75 334.583007812 306.666992188 306.041992188 300.416992188 276.041992188 c 1
 200 276.041992188 l 1
 200 180.416992188 l 1
 300.416992188 180.416992188 l 1
 304.375 162.083007812 310.416992188 144.166992188 318.541992188 127.291992188 c 1
 261.666992188 70.4169921875 l 1
 328.958007812 3.125 l 1
 376.666992188 50.8330078125 l 1
 407.5 22.5 445.416992188 2.9169921875 486.458007812 -6.0419921875 c 1
 486.458007812 -106.25 l 1
 582.083007812 -106.25 l 1
 582.083007812 -6.0419921875 l 1
 623.333007812 2.7080078125 661.25 22.2919921875 692.5 50.4169921875 c 1
 740.208007812 2.7080078125 l 1
 807.5 70 l 1
 750.625 126.875 l 1
 758.75 143.958007812 764.583007812 161.875 768.333007812 180.416992188 c 1
 868.75 180.416992188 l 1
EndSplineSet
EndChar

StartChar: upload
Encoding: 117 117 15
Width: 1080
VWidth: 0
Flags: W
HStem: -200 61.8271<127.015 952.081> 780 20G<535.379 543.508> 780 20G<535.379 543.508>
VStem: 0 61.8271<-73.0797 315.678> 508.587 61.8271<37.6986 694.436> 1017.17 61.8281<-72.9851 311.079>
LayerCount: 2
Fore
SplineSet
1048.08789062 312.479492188 m 0x9c
 1065.26171875 312.479492188 1079.00195312 298.51171875 1079.00195312 281.56640625 c 2
 1079.00195312 0.3662109375 l 2
 1079.00195312 -110.006835938 989.237304688 -200 878.634765625 -200 c 2
 200.366210938 -200 l 2
 89.9931640625 -200 0 -110.236328125 0 0.3662109375 c 2
 0 286.146484375 l 2
 0 303.3203125 13.7392578125 317.059570312 30.9140625 317.059570312 c 0
 48.087890625 317.059570312 61.8271484375 303.3203125 61.8271484375 286.146484375 c 2
 61.8271484375 0.3662109375 l 2
 61.8271484375 -75.8876953125 123.883789062 -138.172851562 200.366210938 -138.172851562 c 2
 878.634765625 -138.172851562 l 2
 954.888671875 -138.172851562 1017.17382812 -76.1162109375 1017.17382812 0.3662109375 c 2
 1017.17382812 281.56640625 l 2
 1017.17382812 298.740234375 1030.9140625 312.479492188 1048.08789062 312.479492188 c 0x9c
364.78125 550.629882812 m 2
 352.874023438 538.72265625 333.180664062 538.72265625 321.2734375 550.629882812 c 0
 309.13671875 562.766601562 309.13671875 582.23046875 321.2734375 594.3671875 c 2
 517.747070312 790.840820312 l 2
 523.471679688 796.793945312 531.256835938 800 539.500976562 800 c 0xdc
 547.515625 800 555.530273438 796.565429688 561.254882812 790.840820312 c 2
 757.728515625 594.3671875 l 2
 769.865234375 582.23046875 769.865234375 562.766601562 757.728515625 550.629882812 c 0
 751.774414062 544.447265625 743.989257812 541.469726562 735.974609375 541.469726562 c 0
 728.188476562 541.469726562 720.173828125 544.67578125 714.220703125 550.629882812 c 2
 570.4140625 694.435546875 l 1
 570.4140625 67.2314453125 l 2
 570.4140625 50.0576171875 556.674804688 36.3173828125 539.500976562 36.3173828125 c 0
 522.326171875 36.3173828125 508.586914062 50.0576171875 508.586914062 67.2314453125 c 2
 508.586914062 694.435546875 l 1
 364.78125 550.629882812 l 2
EndSplineSet
EndChar

StartChar: search
Encoding: 115 115 16
Width: 1000
VWidth: 0
HStem: 21.7432 70.75<276.674 501.267> 729.249 70.751<276.847 501.744>
VStem: 0 70.751<298.429 523.153> 707.507 70.75<298.916 523.313>
LayerCount: 2
Fore
SplineSet
389.12890625 21.7431640625 m 0
 175.151367188 21.7431640625 0 196.03125 0 410.87109375 c 0
 0 624.848632812 175.151367188 800 389.12890625 800 c 0
 603.96875 800 778.256835938 625.711914062 778.256835938 410.87109375 c 0
 778.256835938 316.825195312 743.744140625 229.680664062 687.662109375 162.381835938 c 1
 989.646484375 -139.603515625 l 2
 1003.45117188 -153.408203125 1003.45117188 -175.840820312 989.646484375 -189.646484375 c 0
 982.744140625 -196.548828125 974.115234375 -200 964.625 -200 c 0
 955.133789062 -200 946.505859375 -196.548828125 939.603515625 -189.646484375 c 2
 637.618164062 112.337890625 l 1
 570.319335938 55.392578125 484.038085938 21.7431640625 389.12890625 21.7431640625 c 0
389.12890625 729.249023438 m 0
 213.977539062 729.249023438 70.7509765625 586.022460938 70.7509765625 410.87109375 c 0
 70.7509765625 235.720703125 213.115234375 92.4931640625 389.12890625 92.4931640625 c 0
 565.142578125 92.4931640625 707.506835938 234.857421875 707.506835938 410.87109375 c 0
 707.506835938 586.022460938 565.142578125 729.249023438 389.12890625 729.249023438 c 0
EndSplineSet
EndChar

StartChar: image
Encoding: 73 73 17
Width: 1167
VWidth: 0
Flags: W
HStem: -200 21G<52.6045 1114.06> 383.333 250<805.122 944.878> 716.667 83.333<85.6313 1080.6>
VStem: 0 83.333<7.8125 714.396> 750 250<438.456 578.211> 1083.33 83.334<7.29199 714.311>
LayerCount: 2
Fore
SplineSet
875 383.333007812 m 0
 805.989257812 383.333007812 750 439.323242188 750 508.333007812 c 0
 750 577.34375 805.989257812 633.333007812 875 633.333007812 c 0
 944.010742188 633.333007812 1000 577.34375 1000 508.333007812 c 0
 1000 439.323242188 944.010742188 383.333007812 875 383.333007812 c 0
1093.75 800 m 2
 1134.375 800 1166.66699219 766.926757812 1166.66699219 726.301757812 c 2
 1166.66699219 -126.301757812 l 2
 1166.66699219 -166.926757812 1134.375 -200 1093.75 -200 c 2
 72.9169921875 -200 l 2
 32.2919921875 -200 0 -166.926757812 0 -126.301757812 c 2
 0 726.301757812 l 2
 0 766.926757812 32.2919921875 800 72.9169921875 800 c 2
 1093.75 800 l 2
825.260742188 285.15625 m 2
 1083.33300781 7.2919921875 l 1
 1082.55175781 685.416992188 l 2
 1081.51074219 703.385742188 1066.92675781 716.666992188 1048.95800781 716.666992188 c 2
 117.448242188 716.666992188 l 2
 99.7392578125 716.666992188 85.9375 703.90625 83.3330078125 686.198242188 c 2
 83.3330078125 7.8125 l 1
 412.760742188 405.208007812 l 2
 422.916992188 416.926757812 439.0625 425.520507812 456.510742188 425.520507812 c 0
 473.958007812 425.520507812 489.583007812 417.96875 500 405.989257812 c 2
 640.104492188 254.426757812 l 2
 644.010742188 250.520507812 648.698242188 246.09375 651.301757812 243.75 c 0
 658.59375 237.239257812 668.75 233.073242188 679.948242188 233.073242188 c 0
 691.666992188 233.073242188 699.739257812 238.020507812 709.895507812 245.3125 c 2
 758.59375 286.458007812 l 2
 769.270507812 295.051757812 778.645507812 301.301757812 791.926757812 301.301757812 c 0
 805.46875 301.301757812 817.448242188 294.270507812 825.260742188 285.15625 c 2
EndSplineSet
EndChar

StartChar: cross
Encoding: 67 67 18
Width: 1000
VWidth: 0
HStem: -200 21G<66.9463 106.946 893.054 933.054> 780 20G<66.9463 106.946 893.054 933.054> 780 20G<66.9463 106.946 893.054 933.054>
LayerCount: 2
Fore
SplineSet
1000 713.053710938 m 1xc0
 586.946289062 300 l 1
 1000 -113.053710938 l 1
 913.053710938 -200 l 1
 500 213.053710938 l 1
 86.9462890625 -200 l 1
 0 -113.053710938 l 1
 413.053710938 300 l 1
 0 713.053710938 l 1
 86.9462890625 800 l 1
 500 386.946289062 l 1
 913.053710938 800 l 1
 1000 713.053710938 l 1xc0
EndSplineSet
EndChar

StartChar: check
Encoding: 99 99 19
Width: 1318
VWidth: 0
Flags: W
HStem: -200 21G<397.91 437.91> 780 20G<1188.96 1228.96> 780 20G<1188.96 1228.96>
LayerCount: 2
Fore
SplineSet
417.91015625 8.955078125 m 1xc0
 1208.95507812 800 l 1
 1313.43261719 695.522460938 l 1
 417.91015625 -200 l 1
 0 217.91015625 l 1
 104.477539062 322.387695312 l 1
 417.91015625 8.955078125 l 1xc0
EndSplineSet
EndChar
